<svg xmlns="http://www.w3.org/2000/svg" viewBox="0 0 24 24" width="48" height="48" fill="none" stroke="currentColor" stroke-width="2" stroke-linecap="round" stroke-linejoin="round">
  
  <path d="M 10 3 L 14 3 C 14 7.5, 17 9, 19.5 12.5 C 21.5 15.5, 19.5 20, 15 20 L 9 20 C 4.5 20, 2.5 15.5, 4.5 12.5 C 7 9, 10 7.5, 10 3 Z" />
  
  <path d="M 11 3 C 9 8, 8 14, 10 20" />
  <path d="M 13 3 C 15 8, 16 14, 14 20" />
  
  <path d="M 9.5 20 V 22" />
  <path d="M 11.16 20 V 22" />
  <path d="M 12.83 20 V 22" />
  <path d="M 14.5 20 V 22" />

</svg>
